<svg width="47" height="46" viewBox="0 0 47 46" fill="none" xmlns="http://www.w3.org/2000/svg">
<path d="M32.6276 22.9896C32.6276 16.898 36.2158 11.62 41.4103 9.17916C37.9056 4.52701 32.6693 1.23086 26.6611 0.292084C30.5414 4.23494 30.5831 10.5352 26.8072 14.5406L26.7237 14.6241C26.682 14.6658 26.6403 14.7075 26.5985 14.7492L20.8824 20.4653C18.1287 23.3234 18.1704 27.8921 20.9867 30.7084L33.6707 43.3923C36.7165 41.8068 39.345 39.5538 41.3895 36.8209C36.2158 34.3592 32.6276 29.1021 32.6276 22.9896Z" fill="#6166AF"/>
<path d="M35.5692 22.9896C35.5692 28.059 38.6567 32.4191 43.0377 34.3175C44.9361 30.9796 46.0209 27.1202 46.0209 22.9896C46.0209 18.8799 44.9361 15.0204 43.0377 11.6617C38.6567 13.5601 35.5692 17.9202 35.5692 22.9896Z" fill="#E77983"/>
<path d="M0 22.9895C0 30.0616 3.19183 36.4036 8.24036 40.6177V5.36142C3.2127 9.57548 0 15.9174 0 22.9895Z" fill="#9ABA4D"/>
<path d="M18.6921 18.4626L18.7755 18.3791C18.8173 18.3374 18.859 18.2957 18.9007 18.254L24.6168 12.5379C27.3705 9.67982 27.3288 5.11111 24.5125 2.29478L22.2177 0C18.1914 0.146032 14.4363 1.31428 11.1819 3.25442V42.7247C14.6449 44.79 18.6712 46 23.0105 46C25.7433 46 28.351 45.5202 30.771 44.644L18.9007 32.7737C14.9578 28.8308 14.8953 22.468 18.6921 18.4626Z" fill="#59C5C7"/>
</svg>
